# xmcd
#
# Track frame offsets: 
#        150
#        20737
#        35768
#        52112
#        66150
#        79630
#        88904
#        100092
#        115216
#        125070
#        139038
#        152835
#        168258
#        180796
#        197389
#        206077
#
# Disc length: 2981 seconds
#
# Revision: 1
# Processed by: cddbd v1.5.2PL0 Copyright (c) Steve Scherf et al.
# Submitted via: ExactAudioCopy v0.90b4
#
DISCID=db0ba310
DTITLE=Ray Charles - The Genius At His Best [CD9) - Georgia On My M
DTITLE=ind
DYEAR=2011
DGENRE=Blues
TTITLE0=I've Got News For You
TTITLE1=Moanin'
TTITLE2=From The Heart
TTITLE3=Chattanooga Choo-Choo
TTITLE4=Blue Hawaii
TTITLE5=Carry Me Back To Old Virginny
TTITLE6=Deep In The Heart Of Texas
TTITLE7=Moon Over Miami
TTITLE8=California Here I Come
TTITLE9=New York's My Home
TTITLE10=Moonlight In Vermont
TTITLE11=Mississippi Mud
TTITLE12=Basin Street Blues
TTITLE13=Georgia On My Mind
TTITLE14=Alabamy Bound
TTITLE15=Ruby
EXTD=
EXTT0=
EXTT1=
EXTT2=
EXTT3=
EXTT4=
EXTT5=
EXTT6=
EXTT7=
EXTT8=
EXTT9=
EXTT10=
EXTT11=
EXTT12=
EXTT13=
EXTT14=
EXTT15=
PLAYORDER=
